<!DOCTYPE svg PUBLIC "-//W3C//DTD SVG 20010904//EN" "http://www.w3.org/TR/2001/REC-SVG-20010904/DTD/svg10.dtd">
<svg version="1.0" xmlns="http://www.w3.org/2000/svg" width="821px" height="876px" viewBox="0 0 8210 8760" preserveAspectRatio="xMidYMid meet"><g fill="#d580d5" stroke="none">
 </g>

<g fill="#ff99cc" stroke="none">
 </g>

<g fill="#db92b6" stroke="none">
 </g>

<g fill="#ffbfff" stroke="none">
 </g>

<g fill="#e374ad" stroke="none">
 <path d="M4680 2111 c-6 -12 -6 -22 -1 -26 6 -3 15 3 21 14 6 12 6 22 1 26 -6 3 -15 -3 -21 -14z"/>
 <path d="M4878 2053 c-7 -14 -3 -33 6 -33 12 -1 17 28 6 35 -5 3 -10 2 -12 -2z"/>
 <path d="M4897 1933 c-4 -6 0 -18 7 -28 8 -11 16 -14 19 -8 4 6 0 18 -7 28 -8 11 -16 14 -19 8z"/>
 <path d="M5195 1910 c-8 -12 20 -24 35 -15 6 3 8 11 5 16 -8 12 -32 12 -40 -1z"/>
 <path d="M5684 1896 c-4 -10 -2 -22 4 -28 8 -8 13 -7 18 6 4 10 2 22 -4 28 -8 8 -13 7 -18 -6z"/>
 <path d="M5536 1871 c-10 -11 -13 -22 -8 -25 5 -3 17 3 26 13 10 11 13 22 8 25 -5 3 -17 -3 -26 -13z"/>
 <path d="M4936 1872 c-3 -6 1 -15 8 -21 8 -7 17 -8 20 -3 3 6 -1 15 -8 21 -8 7 -17 8 -20 3z"/>
 <path d="M5545 1748 c-9 -24 -2 -93 10 -93 14 0 19 85 6 98 -7 7 -12 5 -16 -5z"/>
 <path d="M5185 1721 c-7 -13 17 -24 40 -19 9 1 16 8 16 13 0 14 -48 19 -56 6z"/>
 <path d="M5295 1400 c-3 -5 0 -13 9 -16 21 -8 71 -1 71 11 0 14 -72 19 -80 5z"/>
 <path d="M5385 1237 c-9 -22 -2 -62 10 -60 6 1 11 14 13 29 4 32 -14 56 -23 31z"/>
 </g>

<g fill="#efbcc3" stroke="none">
 <path d="M4751 2206 c-7 -8 -8 -17 -3 -20 6 -3 15 1 21 8 7 8 8 17 3 20 -6 3 -15 -1 -21 -8z"/>
 <path d="M5000 2101 c-6 -12 -6 -22 -1 -26 6 -3 15 3 21 14 6 12 6 22 1 26 -6 3 -15 -3 -21 -14z"/>
 <path d="M5806 2071 c-4 -5 -2 -12 4 -16 6 -4 8 -10 5 -15 -3 -5 -1 -11 4 -14 5 -4 12 -2 15 3 4 5 2 12 -4 16 -6 4 -8 10 -5 15 3 5 1 11 -4 14 -5 4 -12 2 -15 -3z"/>
 <path d="M5470 1971 c-6 -12 -6 -22 -1 -26 6 -3 15 3 21 14 6 12 6 22 1 26 -6 3 -15 -3 -21 -14z"/>
 <path d="M5365 1911 c-7 -12 12 -24 25 -16 11 7 4 25 -10 25 -5 0 -11 -4 -15 -9z"/>
 <path d="M5155 1800 c-3 -5 0 -13 8 -16 23 -8 102 0 102 11 0 14 -102 19 -110 5z"/>
 <path d="M5355 1801 c-7 -12 12 -24 25 -16 11 7 4 25 -10 25 -5 0 -11 -4 -15 -9z"/>
 <path d="M5314 1656 c-4 -10 -2 -22 4 -28 8 -8 13 -7 18 6 4 10 2 22 -4 28 -8 8 -13 7 -18 -6z"/>
 <path d="M4567 1543 c-4 -6 0 -18 7 -28 8 -11 16 -14 19 -8 4 6 0 18 -7 28 -8 11 -16 14 -19 8z"/>
 <path d="M4335 1470 c-4 -6 -3 -16 3 -22 6 -6 12 -6 17 2 4 6 3 16 -3 22 -6 6 -12 6 -17 -2z"/>
 <path d="M5665 1400 c-3 -5 0 -13 9 -16 21 -8 71 -1 71 11 0 14 -72 19 -80 5z"/>
 <path d="M4464 1386 c-8 -21 3 -49 16 -41 5 3 10 15 10 25 0 25 -18 36 -26 16z"/>
 <path d="M4935 1237 c-9 -22 -2 -62 10 -60 6 1 11 14 13 29 4 32 -14 56 -23 31z"/>
 <path d="M5366 1021 c-4 -5 -2 -12 4 -16 5 -3 10 -3 10 1 0 3 6 1 14 -5 10 -8 16 -9 21 -1 3 5 4 11 1 11 -3 1 -9 2 -13 3 -5 1 -13 5 -20 9 -6 4 -14 3 -17 -2z"/>
 </g>

<g fill="#dd72a8" stroke="none">
 <path d="M5787 2123 c-4 -6 0 -18 7 -28 8 -11 16 -14 19 -8 4 6 0 18 -7 28 -8 11 -16 14 -19 8z"/>
 <path d="M4875 2070 c-4 -6 -3 -16 3 -22 6 -6 12 -6 17 2 4 6 3 16 -3 22 -6 6 -12 6 -17 -2z"/>
 <path d="M4875 2020 c-4 -6 -3 -16 3 -22 6 -6 12 -6 17 2 4 6 3 16 -3 22 -6 6 -12 6 -17 -2z"/>
 <path d="M5594 2016 c-4 -10 -2 -22 4 -28 8 -8 13 -7 18 6 4 10 2 22 -4 28 -8 8 -13 7 -18 -6z"/>
 <path d="M4985 1831 c-3 -6 3 -15 14 -21 12 -6 22 -6 26 -1 3 6 -3 15 -14 21 -12 6 -22 6 -26 1z"/>
 <path d="M5829 1786 c-1 -3 -2 -9 -3 -13 -1 -5 -5 -13 -9 -20 -4 -6 -3 -14 3 -18 5 -3 11 -4 11 -1 1 3 2 9 3 14 1 4 5 12 9 19 4 6 3 14 -3 18 -5 3 -11 4 -11 1z"/>
 <path d="M4945 1761 c-3 -6 3 -15 14 -21 12 -6 22 -6 26 -1 3 6 -3 15 -14 21 -12 6 -22 6 -26 1z"/>
 <path d="M5545 1760 c-4 -6 -10 -8 -15 -5 -5 3 -11 1 -14 -4 -4 -5 -2 -12 3 -15 5 -4 12 -2 16 4 4 6 10 8 15 5 5 -3 11 -1 14 4 4 5 2 12 -3 15 -5 4 -12 2 -16 -4z"/>
 <path d="M6066 1751 c-10 -11 -13 -22 -8 -25 5 -3 17 3 26 13 10 11 13 22 8 25 -5 3 -17 -3 -26 -13z"/>
 <path d="M4807 1743 c-4 -6 0 -18 7 -28 8 -11 16 -14 19 -8 4 6 0 18 -7 28 -8 11 -16 14 -19 8z"/>
 <path d="M4396 1733 c-4 -5 -12 -8 -17 -8 -5 0 -9 -3 -9 -7 0 -8 3 -9 18 -7 4 1 12 2 17 3 13 1 19 20 8 23 -5 2 -13 0 -17 -4z"/>
 <path d="M5235 1720 c-3 -5 0 -13 9 -16 21 -8 71 -1 71 11 0 14 -72 19 -80 5z"/>
 <path d="M5606 1711 c-10 -11 -13 -22 -8 -25 5 -3 17 3 26 13 10 11 13 22 8 25 -5 3 -17 -3 -26 -13z"/>
 <path d="M5135 1400 c-3 -5 0 -13 8 -16 24 -9 162 0 162 11 0 14 -161 19 -170 5z"/>
 <path d="M6057 1252 c-4 -5 9 -23 27 -41 19 -18 36 -29 39 -23 4 5 -9 23 -27 41 -19 18 -36 29 -39 23z"/>
 <path d="M4865 1100 c-4 -6 -3 -16 3 -22 6 -6 12 -6 17 2 4 6 3 16 -3 22 -6 6 -12 6 -17 -2z"/>
 <path d="M4905 1021 c-3 -6 3 -15 14 -21 12 -6 22 -6 26 -1 3 6 -3 15 -14 21 -12 6 -22 6 -26 1z"/>
 </g>

<g fill="#ebabbd" stroke="none">
 <path d="M5045 2146 c-11 -8 -14 -16 -8 -19 6 -4 18 0 28 7 11 8 14 16 8 19 -6 4 -18 0 -28 -7z"/>
 <path d="M4856 2101 c-22 -24 -7 -35 17 -14 10 10 21 17 23 16 2 -2 5 0 7 4 5 14 -33 10 -47 -6z"/>
 <path d="M4809 2026 c-1 -3 -2 -9 -3 -13 -1 -5 -5 -13 -9 -20 -4 -6 -3 -14 3 -18 5 -3 11 -4 11 -1 1 3 2 9 3 14 1 4 5 12 9 19 4 6 3 14 -3 18 -5 3 -11 4 -11 1z"/>
 <path d="M5589 1966 c-1 -3 -2 -9 -3 -13 -1 -5 -7 -18 -14 -30 -7 -13 -8 -24 -3 -28 6 -3 15 4 21 15 6 11 8 20 4 20 -3 0 -1 6 5 14 8 10 9 16 1 21 -5 3 -11 4 -11 1z"/>
 <path d="M4635 1940 c-4 -6 -3 -16 3 -22 6 -6 12 -6 17 2 4 6 3 16 -3 22 -6 6 -12 6 -17 -2z"/>
 <path d="M5345 1911 c-7 -12 12 -24 25 -16 11 7 4 25 -10 25 -5 0 -11 -4 -15 -9z"/>
 <path d="M5105 1801 c-7 -13 17 -24 40 -19 9 1 16 8 16 13 0 14 -48 19 -56 6z"/>
 <path d="M4446 1712 c-3 -6 1 -15 9 -22 8 -7 13 -16 10 -20 -3 -5 -1 -11 4 -14 5 -4 12 -2 15 3 4 5 2 12 -4 16 -6 4 -8 10 -5 15 3 4 -2 13 -9 19 -8 7 -17 8 -20 3z"/>
 <path d="M5314 1696 c-8 -21 3 -49 16 -41 5 3 10 15 10 25 0 25 -18 36 -26 16z"/>
 <path d="M4921 1652 c-13 -25 2 -38 19 -16 9 10 10 18 3 25 -8 8 -14 5 -22 -9z"/>
 <path d="M4335 1578 c-9 -24 0 -213 10 -213 13 0 18 212 5 220 -6 3 -12 0 -15 -7z"/>
 <path d="M4736 1542 c-3 -5 5 -19 18 -31 13 -13 26 -18 30 -13 3 5 -5 19 -18 31 -13 13 -26 18 -30 13z"/>
 <path d="M5545 1400 c-3 -5 0 -13 8 -16 23 -9 122 0 122 11 0 14 -122 19 -130 5z"/>
 <path d="M5535 1237 c-9 -22 -2 -62 10 -60 6 1 11 14 13 29 4 32 -14 56 -23 31z"/>
 <path d="M5085 1181 c-12 -21 46 -34 78 -19 10 5 15 13 12 19 -4 5 -13 5 -26 -1 -13 -7 -25 -7 -38 0 -12 6 -22 6 -26 1z"/>
 <path d="M6126 1182 c-3 -6 1 -15 8 -21 8 -7 17 -8 20 -3 3 6 -1 15 -8 21 -8 7 -17 8 -20 3z"/>
 </g>

<g fill="#e590b3" stroke="none">
 <path d="M5716 2212 c-3 -6 1 -15 8 -21 8 -7 17 -8 20 -3 3 6 -1 15 -8 21 -8 7 -17 8 -20 3z"/>
 <path d="M5021 2126 c-7 -8 -8 -17 -3 -20 6 -3 15 1 21 8 7 8 8 17 3 20 -6 3 -15 -1 -21 -8z"/>
 <path d="M5426 2122 c-3 -6 1 -15 8 -21 8 -7 17 -8 20 -3 3 6 -1 15 -8 21 -8 7 -17 8 -20 3z"/>
 <path d="M5576 2101 c-4 -5 -2 -12 4 -16 6 -4 8 -10 5 -15 -3 -5 -1 -11 4 -14 5 -4 12 -2 15 3 4 5 2 12 -4 16 -6 4 -8 10 -5 15 3 5 1 11 -4 14 -5 4 -12 2 -15 -3z"/>
 <path d="M6241 1976 c-7 -8 -8 -17 -3 -20 6 -3 15 1 21 8 7 8 8 17 3 20 -6 3 -15 -1 -21 -8z"/>
 <path d="M5685 1920 c-4 -6 -3 -16 3 -22 6 -6 12 -6 17 2 4 6 3 16 -3 22 -6 6 -12 6 -17 -2z"/>
 <path d="M5105 1910 c-3 -5 0 -13 8 -16 23 -8 92 0 92 11 0 14 -92 19 -100 5z"/>
 <path d="M5225 1910 c-3 -5 0 -13 8 -16 23 -9 122 0 122 11 0 14 -122 19 -130 5z"/>
 <path d="M5685 1870 c-4 -6 -3 -16 3 -22 6 -6 12 -6 17 2 4 6 3 16 -3 22 -6 6 -12 6 -17 -2z"/>
 <path d="M5085 1801 c-7 -12 12 -24 25 -16 11 7 4 25 -10 25 -5 0 -11 -4 -15 -9z"/>
 <path d="M5385 1801 c-7 -12 12 -24 25 -16 11 7 4 25 -10 25 -5 0 -11 -4 -15 -9z"/>
 <path d="M5660 1781 c-6 -12 -6 -22 -1 -26 6 -3 15 3 21 14 6 12 6 22 1 26 -6 3 -15 -3 -21 -14z"/>
 <path d="M4925 1758 c-9 -24 -1 -103 10 -103 14 0 19 95 6 108 -7 7 -12 5 -16 -5z"/>
 <path d="M4986 1741 c-4 -5 -2 -12 4 -16 5 -3 10 -3 10 1 0 3 6 1 14 -5 10 -8 16 -9 21 -1 3 5 4 11 1 11 -3 1 -9 2 -13 3 -5 1 -13 5 -20 9 -6 4 -14 3 -17 -2z"/>
 <path d="M5800 1721 c-6 -12 -6 -22 -1 -26 6 -3 15 3 21 14 6 12 6 22 1 26 -6 3 -15 -3 -21 -14z"/>
 <path d="M5165 1721 c-7 -12 12 -24 25 -16 11 7 4 25 -10 25 -5 0 -11 -4 -15 -9z"/>
 <path d="M5385 1720 c-8 -13 20 -24 41 -16 20 8 9 26 -16 26 -10 0 -22 -5 -25 -10z"/>
 <path d="M5934 1656 c-10 -8 -22 -14 -26 -15 -5 0 -8 -3 -8 -6 0 -4 6 -6 13 -4 1 0 10 2 21 4 24 5 41 21 29 28 -6 4 -18 0 -29 -7z"/>
 <path d="M4335 1648 c-9 -22 -2 -68 10 -71 14 -3 19 63 6 76 -7 7 -12 5 -16 -5z"/>
 <path d="M4667 1654 c-9 -10 22 -66 33 -59 6 4 4 18 -5 36 -17 31 -18 32 -28 23z"/>
 <path d="M4546 1601 c-4 -5 -2 -12 4 -16 6 -4 8 -10 5 -15 -3 -5 -1 -11 4 -14 5 -4 12 -2 15 3 4 5 2 12 -4 16 -6 4 -8 10 -5 15 3 5 1 11 -4 14 -5 4 -12 2 -15 -3z"/>
 <path d="M5365 1400 c-3 -5 0 -13 8 -16 23 -9 177 0 180 11 3 14 -179 19 -188 5z"/>
 <path d="M5826 1391 c-4 -5 -2 -12 4 -16 5 -3 10 -3 10 1 0 3 6 1 14 -5 10 -8 16 -9 21 -1 3 5 4 11 1 11 -3 1 -9 2 -13 3 -5 1 -13 5 -20 9 -6 4 -14 3 -17 -2z"/>
 <path d="M4335 1370 c-4 -6 -3 -16 3 -22 6 -6 12 -6 17 2 4 6 3 16 -3 22 -6 6 -12 6 -17 -2z"/>
 <path d="M4886 1042 c-3 -6 1 -15 8 -21 8 -7 17 -8 20 -3 3 6 -1 15 -8 21 -8 7 -17 8 -20 3z"/>
 <path d="M5104 1018 c-6 -9 -4 -10 26 -11 11 -1 19 3 18 8 -4 12 -37 14 -44 3z"/>
 </g>

<g fill="#f4d1cb" stroke="none">
 <path d="M4975 2301 c-7 -12 12 -24 25 -16 11 7 4 25 -10 25 -5 0 -11 -4 -15 -9z"/>
 <path d="M5465 2300 c-8 -12 20 -24 35 -15 6 3 8 11 5 16 -8 12 -32 12 -40 -1z"/>
 <path d="M4902 2288 c-7 -7 -12 -8 -12 -4 0 5 -7 3 -15 -4 -8 -7 -15 -9 -15 -6 0 4 -9 2 -20 -4 -11 -6 -18 -15 -15 -21 4 -5 15 -4 28 3 12 7 25 13 30 14 4 1 9 3 12 4 3 1 10 3 15 4 6 0 10 5 11 9 1 15 -7 17 -19 5z"/>
 <path d="M5585 2280 c-3 -5 -4 -11 -1 -11 3 -1 9 -2 14 -3 4 -1 21 -10 39 -19 19 -10 34 -13 38 -7 3 5 -8 16 -25 25 -16 8 -30 13 -30 9 0 -4 -6 -1 -14 5 -10 8 -16 9 -21 1z"/>
 <path d="M5746 2172 c-3 -6 1 -15 8 -21 8 -7 17 -8 20 -3 3 6 -1 15 -8 21 -8 7 -17 8 -20 3z"/>
 <path d="M4685 2111 c-9 -18 -11 -32 -5 -36 5 -3 16 8 25 24 9 18 11 32 5 36 -5 3 -16 -8 -25 -24z"/>
 <path d="M5565 2131 c-7 -12 12 -24 25 -16 11 7 4 25 -10 25 -5 0 -11 -4 -15 -9z"/>
 <path d="M4877 2123 c-4 -6 0 -18 7 -28 8 -11 16 -14 19 -8 4 6 0 18 -7 28 -8 11 -16 14 -19 8z"/>
 <path d="M5787 2113 c-4 -6 0 -18 7 -28 8 -11 16 -14 19 -8 4 6 0 18 -7 28 -8 11 -16 14 -19 8z"/>
 <path d="M5616 2102 c-3 -6 1 -15 8 -21 8 -7 17 -8 20 -3 3 6 -1 15 -8 21 -8 7 -17 8 -20 3z"/>
 <path d="M4984 2046 c-8 -21 3 -49 16 -41 5 3 10 15 10 25 0 25 -18 36 -26 16z"/>
 <path d="M4997 1983 c-4 -6 0 -18 7 -28 8 -11 16 -14 19 -8 4 6 0 18 -7 28 -8 11 -16 14 -19 8z"/>
 <path d="M4887 1973 c-4 -3 -2 -12 4 -20 6 -7 8 -13 5 -13 -4 0 -2 -9 4 -20 6 -11 15 -18 21 -15 5 4 4 15 -3 28 -7 12 -12 25 -13 29 0 11 -11 18 -18 11z"/>
 <path d="M5035 1931 c-3 -6 4 -15 15 -21 11 -6 20 -8 20 -4 0 3 6 1 14 -5 10 -8 16 -9 21 -1 3 5 4 11 1 11 -3 1 -9 2 -13 3 -5 1 -18 7 -30 14 -13 7 -24 8 -28 3z"/>
 <path d="M5835 1918 c-9 -22 -2 -68 10 -71 14 -3 19 63 6 76 -7 7 -12 5 -16 -5z"/>
 <path d="M4635 1908 c-9 -24 -1 -128 10 -131 13 -3 19 123 6 136 -7 7 -12 5 -16 -5z"/>
 <path d="M4995 1831 c-3 -6 4 -15 15 -21 11 -6 20 -8 20 -4 0 3 6 1 14 -5 10 -8 16 -9 21 -1 3 5 4 11 1 11 -3 1 -9 2 -13 3 -5 1 -18 7 -30 14 -13 7 -24 8 -28 3z"/>
 <path d="M5464 1826 c-10 -8 -22 -14 -26 -15 -5 0 -8 -3 -8 -6 0 -4 6 -6 13 -4 1 0 10 2 21 4 24 5 41 21 29 28 -6 4 -18 0 -29 -7z"/>
 <path d="M5255 1800 c-3 -5 0 -13 8 -16 23 -8 102 0 102 11 0 14 -102 19 -110 5z"/>
 <path d="M4786 1781 c-4 -5 -2 -12 4 -16 6 -4 8 -10 5 -15 -3 -5 -1 -11 4 -14 5 -4 12 -2 15 3 4 5 2 12 -4 16 -6 4 -8 10 -5 15 3 5 1 11 -4 14 -5 4 -12 2 -15 -3z"/>
 <path d="M4935 1760 c-3 -5 8 -16 25 -25 16 -8 30 -13 30 -9 0 4 7 1 15 -6 8 -7 15 -9 15 -5 0 4 6 2 14 -4 10 -8 16 -9 21 -1 3 5 4 11 1 11 -16 4 -26 7 -31 9 -3 1 -8 3 -12 4 -5 1 -22 10 -40 19 -19 10 -34 13 -38 7z"/>
 <path d="M5515 1746 c-11 -8 -14 -16 -8 -19 6 -4 18 0 28 7 11 8 14 16 8 19 -6 4 -18 0 -28 -7z"/>
 <path d="M5795 1721 c-9 -18 -11 -32 -5 -36 5 -3 16 8 25 24 9 18 11 32 5 36 -5 3 -16 -8 -25 -24z"/>
 <path d="M5085 1707 c-9 -22 -2 -62 10 -60 6 1 11 14 13 29 4 32 -14 56 -23 31z"/>
 <path d="M5156 1713 c-3 -3 -6 -23 -6 -44 0 -34 -3 -38 -27 -41 -35 -4 -33 -22 2 -26 38 -5 55 14 55 64 0 41 -10 61 -24 47z"/>
 <path d="M4826 1702 c-3 -5 5 -19 18 -31 13 -13 26 -18 30 -13 3 5 -5 19 -18 31 -13 13 -26 18 -30 13z"/>
 <path d="M4656 1691 c-4 -5 -2 -12 4 -16 6 -4 8 -10 5 -15 -3 -5 -1 -11 4 -14 5 -4 12 -2 15 3 4 5 2 12 -4 16 -6 4 -8 10 -5 15 3 5 1 11 -4 14 -5 4 -12 2 -15 -3z"/>
 <path d="M5953 1660 c-18 -11 -33 -17 -33 -14 0 4 -6 2 -12 -4 -7 -6 -16 -11 -20 -11 -5 -1 -8 -3 -8 -6 0 -3 0 -8 0 -11 0 -4 7 -1 15 6 8 7 15 9 15 5 0 -4 7 -2 15 5 8 7 15 10 15 6 0 -4 14 1 30 9 17 9 28 20 25 25 -8 13 -4 13 -42 -10z"/>
 <path d="M4464 1646 c-4 -10 -2 -22 4 -28 8 -8 13 -7 18 6 4 10 2 22 -4 28 -8 8 -13 7 -18 -6z"/>
 <path d="M4885 1651 c-6 -11 22 -28 43 -27 13 1 17 15 5 17 -5 1 -16 5 -25 10 -10 6 -19 5 -23 0z"/>
 <path d="M5747 1642 c-10 -21 1 -37 27 -40 35 -4 59 14 30 23 -10 4 -27 11 -36 16 -9 5 -19 5 -21 1z"/>
 <path d="M5315 1630 c-3 -4 2 -13 10 -20 16 -13 65 -10 68 5 2 11 -72 25 -78 15z"/>
 <path d="M4495 1620 c-8 -13 20 -24 41 -16 20 8 9 26 -16 26 -10 0 -22 -5 -25 -10z"/>
 <path d="M4546 1591 c-4 -5 -2 -12 4 -16 6 -4 8 -10 5 -15 -3 -5 -1 -11 4 -14 5 -4 12 -2 15 3 4 5 2 12 -4 16 -6 4 -8 10 -5 15 3 5 1 11 -4 14 -5 4 -12 2 -15 -3z"/>
 <path d="M4825 1470 c-3 -5 8 -16 24 -25 18 -9 32 -11 36 -5 3 5 -8 16 -24 25 -18 9 -32 11 -36 5z"/>
 <path d="M4645 1421 c-6 -6 -46 -11 -90 -13 -112 -4 -102 -22 14 -26 100 -3 119 3 98 31 -8 12 -16 14 -22 8z"/>
 <path d="M5735 1400 c-3 -5 0 -13 9 -16 21 -8 61 -1 61 11 0 14 -62 19 -70 5z"/>
 <path d="M5836 1391 c-4 -5 -2 -12 4 -16 5 -3 10 -3 10 1 0 3 6 1 14 -5 10 -8 16 -9 21 -1 3 5 4 11 1 11 -3 1 -9 2 -13 3 -5 1 -13 5 -20 9 -6 4 -14 3 -17 -2z"/>
 <path d="M4384 1298 c-6 -9 -4 -10 26 -11 11 -1 19 3 18 8 -4 12 -37 14 -44 3z"/>
 <path d="M5306 1243 c-3 -3 -6 -19 -6 -34 0 -30 44 -74 63 -62 6 4 3 11 -8 19 -10 7 -21 12 -24 9 -4 -2 -5 11 -3 30 4 31 -8 52 -22 38z"/>
 <path d="M5535 1181 c-3 -6 3 -15 14 -21 12 -6 22 -6 26 -1 3 6 -3 15 -14 21 -12 6 -22 6 -26 1z"/>
 <path d="M6146 1162 c-3 -6 1 -15 8 -21 8 -7 17 -8 20 -3 3 6 -1 15 -8 21 -8 7 -17 8 -20 3z"/>
 <path d="M5587 1143 c-4 -6 0 -18 7 -28 8 -11 16 -14 19 -8 4 6 0 18 -7 28 -8 11 -16 14 -19 8z"/>
 <path d="M6226 1062 c-3 -5 3 -17 13 -26 11 -10 22 -13 25 -8 3 5 -3 17 -13 26 -11 10 -22 13 -25 8z"/>
 <path d="M5335 1026 c-11 -8 -14 -16 -8 -19 6 -4 18 0 28 7 11 8 14 16 8 19 -6 4 -18 0 -28 -7z"/>
 <path d="M4915 1020 c-3 -5 -4 -11 -1 -11 13 -3 22 -6 39 -14 11 -4 23 -3 29 3 8 8 7 13 -6 18 -9 4 -20 4 -23 0 -3 -3 -12 -1 -19 5 -8 7 -14 7 -19 -1z"/>
 <path d="M5165 1010 c-3 -5 0 -13 8 -16 23 -8 127 0 130 11 3 14 -129 19 -138 5z"/>
 <path d="M5405 1010 c-8 -13 20 -24 41 -16 20 8 9 26 -16 26 -10 0 -22 -5 -25 -10z"/>
 <path d="M5505 1011 c-7 -12 12 -24 25 -16 11 7 4 25 -10 25 -5 0 -11 -4 -15 -9z"/>
 </g>

<g fill="#d54f9b" stroke="none">
 <path d="M5725 2981 c-3 -6 3 -15 14 -21 12 -6 22 -6 26 -1 3 6 -3 15 -14 21 -12 6 -22 6 -26 1z"/>
 <path d="M4315 2636 c-11 -8 -14 -16 -8 -19 6 -4 18 0 28 7 11 8 14 16 8 19 -6 4 -18 0 -28 -7z"/>
 <path d="M4125 2526 c-11 -8 -14 -16 -8 -19 6 -4 18 0 28 7 11 8 14 16 8 19 -6 4 -18 0 -28 -7z"/>
 <path d="M4885 2290 c-4 -6 -10 -8 -15 -5 -5 3 -11 1 -14 -4 -4 -5 -2 -12 3 -15 5 -4 12 -2 16 4 4 6 10 8 15 5 5 -3 11 -1 14 4 4 5 2 12 -3 15 -5 4 -12 2 -16 -4z"/>
 <path d="M5576 2291 c-4 -5 -2 -12 4 -16 5 -3 10 -3 10 1 0 3 6 1 14 -5 10 -8 16 -9 21 -1 3 5 4 11 1 11 -3 1 -9 2 -13 3 -5 1 -13 5 -20 9 -6 4 -14 3 -17 -2z"/>
 <path d="M4799 2252 c-29 -24 -11 -36 20 -13 14 11 19 21 13 25 -5 3 -20 -2 -33 -12z"/>
 <path d="M5686 2242 c-3 -6 1 -15 8 -21 8 -7 17 -8 20 -3 3 6 -1 15 -8 21 -8 7 -17 8 -20 3z"/>
 <path d="M5076 2153 c-4 -5 -12 -8 -17 -8 -5 0 -9 -3 -9 -7 0 -8 2 -8 18 -8 76 5 329 -3 338 -11 8 -6 14 -7 18 0 4 5 -4 17 -16 25 -18 13 -52 16 -174 16 -83 0 -154 -3 -158 -7z"/>
 <path d="M5575 2120 c-4 -6 -3 -16 3 -22 6 -6 12 -6 17 2 4 6 3 16 -3 22 -6 6 -12 6 -17 -2z"/>
 <path d="M5009 2106 c-1 -3 -2 -9 -3 -13 -1 -5 -5 -14 -9 -20 -5 -7 -5 -18 -2 -23 9 -14 28 -1 21 15 -2 7 0 17 6 23 6 6 6 12 -1 16 -6 4 -12 5 -12 2z"/>
 <path d="M5596 2091 c-11 -12 -14 -21 -7 -26 11 -6 15 1 11 20 -1 5 7 1 18 -8 11 -10 23 -14 26 -9 3 5 -3 17 -13 26 -16 15 -19 15 -35 -3z"/>
 <path d="M4875 2090 c-4 -6 -3 -16 3 -22 6 -6 12 -6 17 2 4 6 3 16 -3 22 -6 6 -12 6 -17 -2z"/>
 <path d="M4660 2071 c-6 -12 -6 -22 -1 -26 6 -3 15 3 21 14 6 12 6 22 1 26 -6 3 -15 -3 -21 -14z"/>
 <path d="M5457 2083 c-4 -6 0 -18 7 -28 8 -11 16 -14 19 -8 4 6 0 18 -7 28 -8 11 -16 14 -19 8z"/>
 <path d="M5806 2082 c-3 -5 1 -17 8 -28 8 -10 12 -24 9 -30 -6 -15 14 -28 22 -14 3 5 3 16 -2 23 -4 6 -8 18 -10 26 -3 20 -20 35 -27 23z"/>
 <path d="M4825 2051 c-9 -18 -11 -32 -5 -36 5 -3 16 8 25 24 9 18 11 32 5 36 -5 3 -16 -8 -25 -24z"/>
 <path d="M5647 2053 c-4 -6 0 -18 7 -28 8 -11 16 -14 19 -8 4 6 0 18 -7 28 -8 11 -16 14 -19 8z"/>
 <path d="M5595 2040 c-4 -6 -3 -16 3 -22 6 -6 12 -6 17 2 4 6 3 16 -3 22 -6 6 -12 6 -17 -2z"/>
 <path d="M5474 2016 c-4 -9 -4 -20 0 -23 3 -3 1 -12 -5 -19 -7 -8 -7 -14 1 -19 5 -3 11 -4 11 -1 3 13 6 22 14 39 4 11 3 23 -3 29 -8 8 -13 7 -18 -6z"/>
 <path d="M4995 2010 c-4 -6 -3 -16 3 -22 6 -6 12 -6 17 2 4 6 3 16 -3 22 -6 6 -12 6 -17 -2z"/>
 <path d="M4874 1996 c-3 -8 -2 -21 2 -28 5 -7 9 -16 9 -20 0 -5 3 -8 8 -8 7 0 8 3 6 18 -1 4 -1 14 0 24 3 22 -18 33 -25 14z"/>
 <path d="M5595 1990 c-4 -6 -3 -16 3 -22 6 -6 12 -6 17 2 4 6 3 16 -3 22 -6 6 -12 6 -17 -2z"/>
 <path d="M6255 1990 c-3 -5 -2 -10 2 -12 13 -7 33 -3 36 6 3 12 -31 17 -38 6z"/>
 <path d="M5835 1980 c-4 -6 -3 -16 3 -22 6 -6 12 -6 17 2 4 6 3 16 -3 22 -6 6 -12 6 -17 -2z"/>
 <path d="M5016 1962 c-3 -5 3 -17 13 -26 11 -10 22 -13 25 -8 3 5 -3 17 -13 26 -11 10 -22 13 -25 8z"/>
 <path d="M5575 1921 c-9 -18 -11 -32 -5 -36 5 -3 16 8 25 24 9 18 11 32 5 36 -5 3 -16 -8 -25 -24z"/>
 <path d="M5425 1930 c-4 -6 -10 -8 -15 -5 -5 3 -11 1 -14 -4 -4 -5 -2 -12 3 -15 5 -4 12 -2 16 4 4 6 10 8 15 5 5 -3 11 -1 14 4 4 5 2 12 -3 15 -5 4 -12 2 -16 -4z"/>
 <path d="M4785 1908 c-8 -23 0 -103 10 -103 13 0 18 102 5 110 -6 3 -12 0 -15 -7z"/>
 <path d="M4624 1867 c-7 -20 -2 -47 11 -50 14 -3 19 43 6 56 -7 7 -12 6 -17 -6z"/>
 <path d="M6151 1856 c-7 -8 -8 -17 -3 -20 6 -3 15 1 21 8 7 8 8 17 3 20 -6 3 -15 -1 -21 -8z"/>
 <path d="M5679 1836 c-1 -3 -2 -9 -3 -13 -1 -5 -10 -22 -19 -40 -10 -19 -13 -34 -7 -38 5 -3 16 8 25 25 8 16 13 30 9 30 -4 0 -1 6 5 14 8 10 9 16 1 21 -5 3 -11 4 -11 1z"/>
 <path d="M5476 1823 c-4 -5 -12 -9 -17 -9 -5 -1 -11 -3 -14 -4 -3 -1 -9 -3 -15 -4 -5 0 -10 -4 -10 -8 0 -5 0 -11 0 -14 0 -4 7 -1 15 6 8 7 15 9 15 5 0 -4 6 -3 13 3 6 6 15 11 20 11 8 1 11 11 5 17 -3 2 -8 1 -12 -3z"/>
 <path d="M5835 1820 c-4 -6 -3 -16 3 -22 6 -6 12 -6 17 2 4 6 3 16 -3 22 -6 6 -12 6 -17 -2z"/>
 <path d="M6121 1816 c-7 -8 -8 -17 -3 -20 6 -3 15 1 21 8 7 8 8 17 3 20 -6 3 -15 -1 -21 -8z"/>
 <path d="M5026 1811 c-4 -5 -2 -12 4 -16 5 -3 10 -3 10 1 0 3 6 1 14 -5 10 -8 16 -9 21 -1 3 5 4 11 1 11 -3 1 -9 2 -13 3 -5 1 -13 5 -20 9 -6 4 -14 3 -17 -2z"/>
 <path d="M5535 1766 c-11 -8 -14 -16 -8 -19 6 -4 18 0 28 7 11 8 14 16 8 19 -6 4 -18 0 -28 -7z"/>
 <path d="M4635 1750 c-4 -6 -3 -16 3 -22 6 -6 12 -6 17 2 4 6 3 16 -3 22 -6 6 -12 6 -17 -2z"/>
 <path d="M4996 1742 c-3 -6 -2 -13 4 -17 5 -3 10 -3 10 1 0 3 7 1 15 -6 8 -6 19 -9 25 -5 14 9 1 28 -15 21 -7 -2 -17 0 -23 6 -6 6 -12 6 -16 0z"/>
 <path d="M5486 1741 c-4 -6 -13 -8 -20 -5 -17 7 -30 -12 -16 -21 6 -4 16 -2 23 3 7 6 15 11 20 11 8 1 11 11 4 17 -3 3 -8 1 -11 -5z"/>
 <path d="M4384 1728 c-6 -9 -4 -10 26 -11 11 -1 19 3 18 8 -4 12 -37 14 -44 3z"/>
 <path d="M5305 1721 c-7 -12 12 -24 25 -16 11 7 4 25 -10 25 -5 0 -11 -4 -15 -9z"/>
 <path d="M4826 1712 c-6 -10 37 -53 71 -71 13 -7 24 -7 28 -2 3 6 -5 15 -17 22 -13 6 -35 23 -49 36 -15 14 -29 20 -33 15z"/>
 <path d="M5375 1708 c-9 -24 -2 -93 10 -93 14 0 19 85 6 98 -7 7 -12 5 -16 -5z"/>
 <path d="M4647 1703 c-4 -3 -2 -12 4 -20 6 -7 8 -13 4 -13 -4 0 -2 -7 5 -15 7 -8 10 -15 6 -15 -4 0 1 -14 9 -30 9 -17 20 -28 25 -25 6 4 3 19 -7 38 -9 18 -18 35 -19 40 -1 4 -3 9 -4 12 -1 3 -3 9 -4 14 -2 14 -12 22 -19 14z"/>
 <path d="M5094 1656 c-8 -21 3 -49 16 -41 5 3 10 15 10 25 0 25 -18 36 -26 16z"/>
 <path d="M5924 1656 c-10 -8 -22 -14 -26 -15 -5 0 -8 -3 -8 -6 0 -4 6 -6 13 -4 1 0 10 2 21 4 24 5 41 21 29 28 -6 4 -18 0 -29 -7z"/>
 <path d="M5805 1630 c-8 -12 20 -24 35 -15 6 3 8 11 5 16 -8 12 -32 12 -40 -1z"/>
 <path d="M4547 1613 c-4 -3 -2 -12 4 -20 6 -7 8 -13 4 -13 -4 0 -2 -7 5 -15 7 -8 10 -15 6 -15 -4 0 1 -14 9 -30 9 -17 20 -28 25 -25 6 4 3 19 -7 38 -9 18 -18 35 -19 40 -1 4 -3 9 -4 12 -1 3 -3 9 -4 14 -2 14 -12 22 -19 14z"/>
 <path d="M4786 1492 c-3 -6 1 -15 8 -21 8 -7 17 -8 20 -3 3 6 -1 15 -8 21 -8 7 -17 8 -20 3z"/>
 <path d="M4636 1442 c-3 -5 8 -21 23 -36 16 -15 31 -23 35 -18 3 5 -8 21 -23 36 -16 15 -31 23 -35 18z"/>
 <path d="M4896 1431 c-4 -5 -2 -12 4 -16 5 -3 10 -3 10 1 0 3 7 1 15 -6 8 -7 15 -9 15 -5 0 4 6 2 14 -4 10 -8 16 -9 21 -1 3 5 4 11 1 11 -16 4 -26 7 -31 9 -3 1 -8 3 -12 4 -5 1 -13 5 -20 9 -6 4 -14 3 -17 -2z"/>
 <path d="M4995 1400 c-3 -5 0 -13 8 -16 23 -9 142 0 142 11 0 14 -142 19 -150 5z"/>
 <path d="M5805 1390 c-3 -5 -3 -11 2 -12 12 -2 27 -5 36 -8 4 -1 10 -3 15 -4 4 -1 26 -12 49 -24 24 -13 44 -18 48 -12 3 5 -12 18 -35 30 -22 11 -40 18 -40 14 0 -4 -7 -1 -15 6 -8 7 -15 9 -15 4 0 -4 -5 -3 -12 4 -15 15 -25 15 -33 2z"/>
 <path d="M4336 1342 c-6 -11 33 -66 42 -58 3 3 11 1 18 -5 7 -6 19 -7 26 -3 7 5 16 9 21 9 4 0 7 3 7 8 0 6 -5 9 -12 6 -29 -9 -52 -2 -72 24 -13 16 -26 25 -30 19z"/>
 <path d="M5996 1302 c-3 -6 1 -15 8 -21 8 -7 17 -8 20 -3 3 6 -1 15 -8 21 -8 7 -17 8 -20 3z"/>
 <path d="M4937 1254 c-16 -16 9 -24 74 -24 67 0 69 -1 69 -25 0 -15 9 -31 25 -41 23 -15 27 -15 50 0 15 10 25 26 25 41 0 23 3 24 73 27 39 2 72 8 72 13 0 15 -144 18 -161 4 -8 -6 -14 -24 -14 -40 0 -22 -5 -29 -20 -29 -15 0 -20 7 -20 28 0 15 -5 33 -12 40 -12 12 -149 17 -161 6z"/>
 <path d="M5395 1250 c-3 -5 0 -13 8 -16 23 -9 152 0 152 11 0 14 -151 19 -160 5z"/>
 <path d="M5365 1176 c-11 -8 -14 -16 -8 -19 6 -4 18 0 28 7 11 8 14 16 8 19 -6 4 -18 0 -28 -7z"/>
 <path d="M6146 1152 c-3 -6 1 -15 8 -21 8 -7 17 -8 20 -3 3 6 -1 15 -8 21 -8 7 -17 8 -20 3z"/>
 <path d="M4879 1146 c-4 -15 -7 -26 -9 -31 -1 -3 -2 -14 -2 -25 0 -11 1 -22 2 -25 1 -3 3 -9 4 -15 0 -5 4 -10 9 -10 6 0 9 6 6 13 -6 11 -4 64 3 74 5 7 5 14 -2 18 -5 3 -11 4 -11 1z"/>
 <path d="M5605 1100 c-4 -6 -3 -16 3 -22 6 -6 12 -6 17 2 4 6 3 16 -3 22 -6 6 -12 6 -17 -2z"/>
 <path d="M6226 1052 c-3 -6 1 -15 8 -21 8 -7 17 -8 20 -3 3 6 -1 15 -8 21 -8 7 -17 8 -20 3z"/>
 <path d="M5125 1020 c-4 -6 -10 -8 -15 -5 -5 3 -11 1 -14 -4 -4 -5 -2 -12 3 -15 5 -4 12 -2 16 4 4 7 12 7 25 0 12 -6 21 -7 25 -1 3 6 -3 15 -14 21 -13 7 -22 7 -26 0z"/>
 <path d="M5355 1021 c-3 -6 3 -15 14 -21 12 -6 22 -6 26 -1 3 6 -3 15 -14 21 -12 6 -22 6 -26 1z"/>
 <path d="M5555 1016 c-11 -8 -14 -16 -8 -19 6 -4 18 0 28 7 11 8 14 16 8 19 -6 4 -18 0 -28 -7z"/>
 <path d="M4035 741 c-3 -6 3 -15 14 -21 12 -6 22 -6 26 -1 3 6 -3 15 -14 21 -12 6 -22 6 -26 1z"/>
 <path d="M4365 551 c-3 -6 3 -15 14 -21 12 -6 22 -6 26 -1 3 6 -3 15 -14 21 -12 6 -22 6 -26 1z"/>
 <path d="M4625 401 c-3 -6 3 -15 14 -21 12 -6 22 -6 26 -1 3 6 -3 15 -14 21 -12 6 -22 6 -26 1z"/>
 <path d="M4955 211 c-3 -6 3 -15 14 -21 12 -6 22 -6 26 -1 3 6 -3 15 -14 21 -12 6 -22 6 -26 1z"/>
 <path d="M5285 21 c-3 -5 4 -13 16 -16 28 -9 33 -2 9 13 -11 6 -21 8 -25 3z"/>
 </g>

<g fill="#fffddb" stroke="none">
 <path d="M4954 2300 c-146 -21 -258 -127 -300 -285 -19 -70 -18 -258 2 -326 30 -101 105 -193 195 -240 107 -54 95 -53 554 -59 l430 -5 78 -37 c63 -31 96 -55 165 -126 48 -48 110 -115 139 -147 44 -52 54 -58 70 -49 17 11 18 36 21 476 2 416 0 467 -14 479 -23 19 -40 4 -110 -95 -79 -113 -156 -190 -220 -222 -49 -24 -190 -52 -202 -40 -3 3 2 14 10 23 9 10 29 43 44 73 27 52 29 62 29 175 0 114 -2 123 -31 185 -17 36 -48 84 -68 107 -48 55 -144 102 -232 114 -82 10 -487 10 -560 -1z m470 -181 c50 -39 71 -113 45 -161 -20 -38 -68 -48 -226 -48 -121 0 -154 3 -183 18 -63 31 -76 137 -24 189 22 22 29 23 192 23 157 0 171 -2 196 -21z m231 -81 c32 -59 43 -158 25 -223 -12 -44 -90 -145 -111 -145 -5 0 -9 17 -9 38 0 21 -3 41 -6 44 -3 4 -22 -1 -42 -9 -20 -8 -57 -18 -82 -22 l-45 -6 -3 -48 c-3 -42 -6 -47 -27 -47 -21 0 -24 5 -27 48 l-3 47 -80 0 -80 0 -3 -47 c-3 -43 -6 -48 -27 -48 -20 0 -25 6 -30 38 -10 57 -13 62 -35 62 -11 0 -43 9 -71 20 -29 10 -56 17 -61 14 -4 -3 -8 -30 -8 -60 0 -30 -3 -54 -8 -54 -23 0 -83 55 -101 94 -46 94 -19 300 47 359 16 15 17 10 17 -62 0 -69 3 -83 30 -127 19 -30 49 -60 79 -79 l49 -30 191 -3 192 -3 54 28 c104 55 148 148 117 252 l-15 50 24 -17 c12 -9 35 -38 49 -64z"/>
 <path d="M4366 1709 l-26 -20 0 -179 c0 -158 2 -180 18 -201 41 -50 122 -15 122 52 l0 29 93 0 c52 0 97 3 100 6 4 4 -10 25 -29 47 -31 34 -67 100 -87 160 -4 9 -15 17 -26 17 -36 0 -51 12 -51 40 0 31 -39 70 -70 70 -10 0 -29 -9 -44 -21z"/>
 <path d="M4947 1244 c-4 -4 -7 -18 -7 -31 0 -15 -14 -37 -35 -57 -91 -87 6 -184 160 -160 25 3 48 10 51 15 3 5 13 5 24 -1 23 -12 180 -13 199 -1 9 6 22 6 35 -1 28 -15 166 -15 193 0 32 17 56 68 48 100 -3 14 -19 37 -35 52 -15 14 -30 40 -32 56 l-3 29 -75 0 -75 0 -3 -32 c-6 -64 -67 -61 -74 2 l-3 30 -75 0 -75 0 -5 -35 c-4 -29 -9 -35 -30 -35 -21 0 -26 6 -30 35 l-5 35 -70 3 c-39 1 -74 0 -78 -4z"/>
 </g>

<g fill="#cb248b" stroke="none">
 <path d="M4630 2816 l-695 -403 -3 -810 -2 -810 666 -384 c366 -211 684 -390 705 -398 33 -13 42 -13 66 -1 41 21 1281 737 1326 766 l37 24 -2 808 -3 807 -699 402 c-384 222 -699 403 -700 403 -1 0 -314 -182 -696 -404z m1008 -560 c75 -35 124 -86 165 -174 25 -54 31 -80 35 -163 5 -110 -8 -167 -58 -247 -16 -26 -25 -51 -21 -55 14 -14 142 9 195 34 68 31 154 115 235 229 37 52 75 96 84 98 16 3 17 -34 17 -472 0 -485 -1 -493 -35 -468 -6 4 -39 41 -73 83 -90 112 -184 194 -271 237 l-75 37 -430 5 c-425 5 -432 6 -491 29 -164 66 -243 168 -265 345 -8 66 -1 183 16 252 20 83 95 188 159 222 74 39 101 41 430 39 l320 -2 63 -29z m-1190 -552 c14 -9 22 -26 22 -43 0 -35 17 -51 52 -51 16 0 28 -5 28 -12 0 -27 50 -118 85 -157 l37 -40 -99 -3 -98 -3 -6 -38 c-8 -48 -20 -60 -60 -60 -54 0 -59 17 -59 210 0 160 2 175 20 193 24 24 48 25 78 4z m644 -495 c6 -64 70 -64 76 0 l3 31 70 0 69 0 0 -29 c0 -41 35 -67 65 -47 11 7 21 27 23 45 l3 31 70 0 69 0 0 -29 c0 -21 8 -36 29 -50 34 -25 44 -65 26 -108 -17 -40 -39 -46 -146 -40 -100 6 -83 6 -196 0 -56 -2 -100 0 -112 6 -13 7 -22 8 -26 1 -3 -5 -46 -10 -94 -10 -110 0 -136 15 -136 80 0 35 6 46 33 68 22 19 32 36 32 55 0 27 0 27 69 27 l70 0 3 -31z"/>
 <path d="M5037 2129 c-47 -36 -56 -120 -20 -176 28 -43 70 -53 227 -53 158 0 200 9 230 51 34 50 13 127 -47 173 -33 25 -37 26 -199 26 -152 0 -167 -2 -191 -21z"/>
 <path d="M4863 2097 c-25 -26 -57 -91 -67 -130 -11 -46 -8 -180 4 -212 20 -52 115 -136 134 -118 3 4 6 31 6 61 0 48 2 53 18 47 9 -5 42 -15 73 -23 56 -16 56 -16 65 -61 8 -42 11 -46 39 -46 29 0 30 2 33 48 l3 47 74 0 74 0 3 -47 c3 -46 4 -48 33 -48 29 0 30 2 33 46 l3 47 47 6 c26 3 60 13 76 21 15 8 30 15 32 15 2 0 4 -18 4 -39 0 -22 4 -43 10 -46 17 -11 97 74 120 127 28 65 25 171 -8 233 -24 47 -77 101 -86 87 -3 -5 -1 -34 6 -63 15 -76 -2 -132 -56 -184 -59 -57 -95 -65 -297 -65 -162 0 -178 2 -224 24 -60 28 -77 46 -105 110 -17 36 -21 63 -18 111 1 35 0 66 -3 69 -3 3 -15 -4 -26 -17z"/>
 </g>

</svg>